<svg id="icon" xmlns="http://www.w3.org/2000/svg" width="50" height="50" viewBox="0 0 50 50">
  <path id="Path_2753" data-name="Path 2753" d="M9.13,24.393H22.61a1.783,1.783,0,0,0,1.783-1.783V9.13A7.138,7.138,0,0,0,17.263,2H9.13A7.138,7.138,0,0,0,2,9.13v8.133A7.138,7.138,0,0,0,9.13,24.393Z" transform="translate(-2 -2)" fill="#f0623a"/>
  <path id="Path_2754" data-name="Path 2754" d="M32.7,2H24.568a7.138,7.138,0,0,0-7.13,7.13V22.61a1.783,1.783,0,0,0,1.783,1.783H32.7a7.138,7.138,0,0,0,7.13-7.13V9.13A7.138,7.138,0,0,0,32.7,2Z" transform="translate(10.17 -2)" fill="#f0623a"/>
  <path id="Path_2755" data-name="Path 2755" d="M9.13,39.83h8.133a7.138,7.138,0,0,0,7.13-7.13V19.22a1.783,1.783,0,0,0-1.783-1.783H9.13A7.138,7.138,0,0,0,2,24.568V32.7A7.138,7.138,0,0,0,9.13,39.83Z" transform="translate(-2 10.17)" fill="#f0623a"/>
  <path id="Path_2756" data-name="Path 2756" d="M32.7,17.438H19.22a1.783,1.783,0,0,0-1.783,1.783V32.7a7.138,7.138,0,0,0,7.13,7.13H32.7a7.138,7.138,0,0,0,7.13-7.13V24.568A7.138,7.138,0,0,0,32.7,17.438Z" transform="translate(10.17 10.17)" fill="#f0623a"/>
</svg>
